<?xml version="1.0" standalone="no"?><!DOCTYPE svg PUBLIC "-//W3C//DTD SVG 1.1//EN" "http://www.w3.org/Graphics/SVG/1.1/DTD/svg11.dtd"><svg t="1530081367777" class="icon" style="" viewBox="0 0 1024 1024" version="1.1" xmlns="http://www.w3.org/2000/svg" p-id="2914" xmlns:xlink="http://www.w3.org/1999/xlink" width="200" height="200"><defs><style type="text/css"></style></defs><path d="M779.117714 473.6H544.109714V244.882286a32.036571 32.036571 0 1 0-64.219428 0v235.008H251.245714a32.548571 32.548571 0 0 0-38.4 31.963428 30.208 30.208 0 0 0 28.306286 32.036572h232.301714v228.717714a32.036571 32.036571 0 1 0 64.146286 0V543.890286h228.717714a30.208 30.208 0 0 0 32.036572-28.306286V512c-0.146286-19.090286-0.146286-38.4-19.236572-38.4zM512 0a512 512 0 0 0-512 512 512 512 0 0 0 512 512 512 512 0 0 0 512-512 513.462857 513.462857 0 0 0-512-512z m0 953.709714A441.636571 441.636571 0 1 1 953.709714 512 442.660571 442.660571 0 0 1 512 953.709714z" p-id="2915" fill="#f54449"></path></svg>