<?xml version="1.0" standalone="no"?><!DOCTYPE svg PUBLIC "-//W3C//DTD SVG 1.1//EN" "http://www.w3.org/Graphics/SVG/1.1/DTD/svg11.dtd"><svg t="1532599167696" class="icon" style="" viewBox="0 0 1024 1024" version="1.1" xmlns="http://www.w3.org/2000/svg" p-id="3392" xmlns:xlink="http://www.w3.org/1999/xlink" width="200" height="200"><defs><style type="text/css"></style></defs><path d="M512 4.352C231.616 4.352 4.352 231.616 4.352 512S231.616 1019.648 512 1019.648 1019.648 792.384 1019.648 512 792.384 4.352 512 4.352zM511.616 923.968c-226.816 0-410.752-183.872-410.752-410.752 0-226.816 183.872-410.752 410.752-410.752s410.752 183.872 410.752 410.752C922.368 740.096 738.496 923.968 511.616 923.968zM717.824 305.984c-22.784-22.784-59.648-22.784-82.368 0L511.872 429.568 388.288 305.984c-22.72-22.784-59.648-22.784-82.368 0-22.784 22.784-22.784 59.648 0 82.368l123.584 123.584L305.856 635.52c-22.784 22.784-22.784 59.648 0 82.368 22.72 22.784 59.648 22.784 82.368 0l123.584-123.584 123.584 123.584c22.72 22.784 59.648 22.784 82.368 0 22.784-22.784 22.784-59.648 0-82.368l-123.52-123.584 123.584-123.584C740.608 365.632 740.608 328.704 717.824 305.984z" p-id="3393" fill="#ffffff"></path></svg>