<?xml version="1.0" standalone="no"?><!DOCTYPE svg PUBLIC "-//W3C//DTD SVG 1.1//EN" "http://www.w3.org/Graphics/SVG/1.1/DTD/svg11.dtd"><svg t="1530177786301" class="icon" style="" viewBox="0 0 1024 1024" version="1.1" xmlns="http://www.w3.org/2000/svg" p-id="13083" xmlns:xlink="http://www.w3.org/1999/xlink" width="200" height="200"><defs><style type="text/css"></style></defs><path d="M459.316104 586.991971c2.198062 28.580942 5.310959 56.981782 9.343809 85.192288-66.689888 43.970444-111.394043 78.226642-134.109394 102.779851l-40.672328-56.06183c9.15859-10.992355 13.740956-26.381857 13.740956-46.168506L307.619146 496.303506l-56.06183 0 0-71.451332 129.162732 0 0 217.10362C397.938198 630.962415 424.139953 612.644211 459.316104 586.991971zM346.092389 240.177128c22.350031 30.049387 46.168506 65.405639 71.451332 106.077967l-70.352301 42.320874c-25.282826-47.267537-47.087435-84.457554-65.405639-111.574145L346.092389 240.177128zM432.384731 272.604678l362.754884 0 0 75.298963-98.933243 0 0 333.624427c0 22.355147-3.710508 40.302915-11.130502 53.863768-7.419993 13.555737-18.321274 23.127743-32.702819 28.717042-14.384615 5.587252-65.36266 8.65717-152.933111 9.206686-5.496178-30.049387-12.461823-58.44511-20.886703-85.192288 27.662013 2.018983 53.129035 3.022847 76.399017 3.022847 16.119119 0 27.66099-0.824785 34.626635-2.473331 6.960529-1.648546 12.730952-5.814426 17.313318-12.504802 4.577249-6.685259 6.870478-15.706727 6.870478-27.068496L613.762685 347.903641 432.384731 347.903641 432.384731 272.604678z" p-id="13084" fill="#f54449"></path><path d="M509.531785 974.686874l-0.803295 0c-3.559059 0-7.118118-0.574075-10.446933-1.836835-3.787256-1.37737-94.588285-34.437323-186.650027-92.979648-55.099922-35.012422-99.178837-71.974241-131.206274-109.970624-42.24208-50.163493-63.707974-102.393042-63.707974-155.196665L116.717282 221.543745c0-12.856819 7.919367-24.450878 19.973914-29.04143L509.990227 51.309596c7.232728-2.755764 15.152095-2.64013 22.270213 0.228197l355.505783 141.30733c11.82328 4.707209 19.514449 16.071024 19.514449 28.813233l0 393.159358c0 52.91721-21.810748 105.147782-64.742537 155.426909-32.485879 37.879726-77.253478 74.842569-133.156696 109.853967-93.439112 58.543348-185.616488 91.603301-189.405791 92.980671C516.533246 974.1128 513.088798 974.686874 509.531785 974.686874L509.531785 974.686874zM179.62196 243.009639 179.62196 614.703103c0 88.503706 89.193415 164.610058 165.069523 212.821083 69.334111 44.078914 139.126664 73.237001 164.494425 83.22447 25.828248-9.986445 97.572246-39.488363 168.169117-83.912132 76.679403-48.098461 168.053484-123.974569 168.053484-212.133422L845.408509 242.665809 520.55177 113.52559 179.62196 243.009639 179.62196 243.009639z" p-id="13085" fill="#f54449"></path></svg>