<?xml version="1.0" standalone="no"?><!DOCTYPE svg PUBLIC "-//W3C//DTD SVG 1.1//EN" "http://www.w3.org/Graphics/SVG/1.1/DTD/svg11.dtd"><svg t="1530177850385" class="icon" style="" viewBox="0 0 1024 1024" version="1.1" xmlns="http://www.w3.org/2000/svg" p-id="13249" xmlns:xlink="http://www.w3.org/1999/xlink" width="200" height="200"><defs><style type="text/css"></style></defs><path d="M513.612 605.882c-149.358 0-270.868-121.51-270.868-270.868s121.51-270.87 270.868-270.87S784.48 185.656 784.48 335.015 662.97 605.881 513.612 605.881z m0-493.986c-123.026 0-223.117 100.091-223.117 223.117S390.585 558.13 513.612 558.13s223.116-100.091 223.116-223.117-100.09-223.117-223.116-223.117z m120.46 515.523l-120.46 47.324-120.46-47.324c-10.95-4.302-22.796 3.77-22.796 15.537V763.11c0 11.766 11.846 19.839 22.796 15.537l120.46-47.324 120.46 47.324c10.95 4.302 22.795-3.77 22.795-15.537V642.956c0-11.765-11.845-19.84-22.796-15.537z" p-id="13250" fill="#f54449"></path><path d="M843.427 959.864H183.796c-39.49 0-71.617-32.126-71.617-71.617V790.23c0-44.447 30.304-82.216 73.694-91.85l99.432-22.075c12.881-2.843 25.627 5.264 28.484 18.135 2.857 12.872-5.262 25.625-18.135 28.484l-99.432 22.076c-21.367 4.742-36.292 23.343-36.292 45.23v98.018c0 13.16 10.706 23.866 23.866 23.866h659.631c13.16 0 23.867-10.706 23.867-23.866V790.23c0-21.887-14.924-40.486-36.293-45.23l-99.431-22.076c-12.872-2.86-20.992-15.612-18.135-28.484 2.857-12.872 15.611-20.978 28.483-18.135l99.432 22.076c43.392 9.633 73.697 47.402 73.697 91.849v98.018c0 39.49-32.127 71.617-71.62 71.617z" p-id="13251" fill="#f54449"></path></svg>