<?xml version="1.0" standalone="no"?><!DOCTYPE svg PUBLIC "-//W3C//DTD SVG 1.1//EN" "http://www.w3.org/Graphics/SVG/1.1/DTD/svg11.dtd"><svg t="1529560715191" class="icon" style="" viewBox="0 0 1024 1024" version="1.1" xmlns="http://www.w3.org/2000/svg" p-id="5060" xmlns:xlink="http://www.w3.org/1999/xlink" width="200" height="200"><defs><style type="text/css"></style></defs><path d="M888.35072 515.97824c-21.52448-18.50368-43.61216-31.488-62.27968-40.39168 29.36832-28.87168 55.67488-72.68352 54.54848-126.01344-1.89952-89.90208-80.68096-132.2752-122.07104-142.12608a25.6 25.6 0 0 0-11.84768 49.80736c0.80896 0.19456 81.1776 20.16256 82.72896 93.39392 1.15712 54.64064-40.96 96.27648-67.77344 109.68064a25.58976 25.58976 0 0 0-13.92128 25.98912 25.66656 25.66656 0 0 0 19.81952 21.89824c7.37792 1.66912 180.53632 43.30496 159.27296 256.62976a25.61024 25.61024 0 0 0 25.50272 28.13952 25.60512 25.60512 0 0 0 25.4464-23.06048c13.43488-134.82496-41.21088-212.51584-89.42592-253.94688zM259.60448 508.24192a25.60512 25.60512 0 0 0 5.98016-47.90784c-26.81344-13.40928-68.92544-55.04-67.77344-109.68064 1.53088-72.42752 79.3344-92.55424 82.82112-93.41952a25.6 25.6 0 0 0-11.93984-49.78688c-41.39008 9.84576-120.1664 52.224-122.07104 142.12608-1.1264 53.33504 25.17504 97.14176 54.5536 126.01344-18.66752 8.90368-40.7552 21.888-62.2848 40.39168-48.21504 41.43104-102.8608 119.12704-89.43104 253.95712a25.6 25.6 0 1 0 50.94912-5.07904c-21.248-213.32992 151.90016-254.96576 159.19616-256.6144z" fill="#8a8a8a" p-id="5061"></path><path d="M841.728 792.34048c0-88.45312-34.01728-168.7808-95.77472-226.18112-33.9968-31.59552-75.136-55.168-120.66816-69.7088 55.04-36.03456 91.49952-98.19648 91.49952-168.75008 0-111.16032-90.43968-201.6-201.6-201.6S313.57952 216.54016 313.57952 327.7056c0 70.07744 35.96288 131.8912 90.37824 168.03328-46.4896 14.47424-88.49408 38.272-123.08992 70.4256-61.76256 57.40032-95.77472 137.72288-95.77472 226.18112 0 4.31616-0.24064 9.1648-0.49664 14.30528-1.13664 22.82496-2.55488 51.24096 16.15872 71.20384 11.07456 11.81696 26.79296 17.96608 46.72 18.26304 33.66912 0.51712 259.6352 0.62464 443.264 0.62464l92.6464-0.01024c18.72384 0 33.54112-5.63712 44.032-16.74752 17.9456-19.00544 16.384-46.12096 15.01184-70.04672-0.36352-6.24128-0.70144-12.1344-0.70144-17.59744zM364.77952 327.7056c0-82.92864 67.47136-150.4 150.4-150.4 82.93376 0 150.4 67.47136 150.4 150.4S598.11328 478.1056 515.17952 478.1056c-82.92864 0-150.4-67.47136-150.4-150.4z m425.47712 516.9664c-0.67584 0.26624-2.6624 0.86016-6.87104 0.86016l-92.6464 0.01024c-150.18496 0-407.37792-0.08192-442.48576-0.6144-6.56896-0.1024-9.50272-1.408-10.1376-2.08384-3.85024-4.11136-2.8928-23.32672-2.3808-33.64864 0.27648-5.53984 0.55808-11.264 0.55808-16.84992 0-151.66464 116.54656-261.74976 277.11488-261.74976s277.11488 110.08 277.11488 261.74976c0 6.93248 0.39936 13.8496 0.77824 20.54144 0.55808 9.5232 1.56672 27.06944-1.04448 31.78496z" fill="#8a8a8a" p-id="5062"></path></svg>