<?xml version="1.0" standalone="no"?><!DOCTYPE svg PUBLIC "-//W3C//DTD SVG 1.1//EN" "http://www.w3.org/Graphics/SVG/1.1/DTD/svg11.dtd"><svg t="1529560372363" class="icon" style="" viewBox="0 0 1024 1024" version="1.1" xmlns="http://www.w3.org/2000/svg" p-id="4244" xmlns:xlink="http://www.w3.org/1999/xlink" width="200" height="200"><defs><style type="text/css"></style></defs><path d="M974.222222 824.888889h-35.555555v-113.777778h35.555555c5.688889 0 11.377778-2.844444 15.644445-5.688889 4.266667-4.266667 5.688889-9.955556 5.688889-15.644444v-85.333334c0-11.377778-9.955556-21.333333-21.333334-21.333333h-35.555555v-177.777778c0-11.377778-9.955556-21.333333-21.333334-21.333333H696.888889v-219.022222l86.755555-18.488889c11.377778-2.844444 18.488889-14.222222 15.644445-25.6-2.844444-11.377778-14.222222-18.488889-25.6-15.644445l-496.355556 108.088889-76.8 15.644445c-1.422222 0-1.422222 0-1.422222 1.422222l-108.088889 24.177778c-11.377778 2.844444-18.488889 14.222222-15.644444 25.6 2.844444 9.955556 11.377778 17.066667 21.333333 17.066666h4.266667l83.911111-18.488888V455.111111h-106.666667c-11.377778 0-21.333333 9.955556-21.333333 21.333333V824.888889h-7.111111c-11.377778 0-21.333333 9.955556-21.333334 21.333333s9.955556 21.333333 21.333334 21.333334h924.444444c11.377778 0 21.333333-9.955556 21.333334-21.333334s-9.955556-21.333333-21.333334-21.333333z m-21.333333-156.444445h-469.333333v-42.666666h469.333333v42.666666z m-270.222222 42.666667v113.777778h-99.555556v-113.777778h99.555556z m14.222222 113.777778v-113.777778h99.555555v113.777778h-99.555555z m99.555555-241.777778h-99.555555v-99.555555h99.555555v99.555555z m-113.777777 0h-99.555556v-99.555555h99.555556v99.555555z m213.333333 0h-85.333333v-106.666667c0-4.266667-2.844444-7.111111-7.111111-7.111111h-227.555556c-4.266667 0-7.111111 2.844444-7.111111 7.111111v106.666667h-85.333333v-156.444444h412.444444v156.444444z m-668.444444-317.155555l58.311111-12.8 368.355555-78.222223V384h-192c-11.377778 0-21.333333 9.955556-21.333333 21.333333v49.777778h-213.333333v-189.155555z m-128 231.822222h341.333333v327.111111h-341.333333v-327.111111z m384 213.333333h85.333333v113.777778h-85.333333v-113.777778z m327.111111 113.777778v-113.777778h85.333333v113.777778h-85.333333z" fill="#8a8a8a" p-id="4245"></path><path d="M369.777778 320c0-4.266667-2.844444-7.111111-7.111111-7.111111h-71.111111c-4.266667 0-7.111111 2.844444-7.111112 7.111111v71.111111c0 4.266667 2.844444 7.111111 7.111112 7.111111h71.111111c4.266667 0 7.111111-2.844444 7.111111-7.111111v-71.111111z m-14.222222 64h-56.888889v-56.888889h56.888889v56.888889z" fill="#8a8a8a" p-id="4246"></path></svg>