<?xml version="1.0" standalone="no"?><!DOCTYPE svg PUBLIC "-//W3C//DTD SVG 1.1//EN" "http://www.w3.org/Graphics/SVG/1.1/DTD/svg11.dtd"><svg t="1530178031607" class="icon" style="" viewBox="0 0 1024 1024" version="1.1" xmlns="http://www.w3.org/2000/svg" p-id="2492" xmlns:xlink="http://www.w3.org/1999/xlink" width="200" height="200"><defs><style type="text/css"></style></defs><path d="M732.397131 248.979608c0 12.216229-9.901511 22.118763-22.116717 22.118763l-398.62586 0c-12.216229 0-22.116717-9.903557-22.116717-22.118763l0 0c0-12.214183 9.901511-22.11467 22.116717-22.11467l398.62586 0C722.49562 226.863914 732.397131 236.765425 732.397131 248.979608L732.397131 248.979608z" p-id="2493" fill="#f54449"></path><path d="M732.397131 492.75161c0 12.216229-9.901511 22.118763-22.116717 22.118763l-398.62586 0c-12.216229 0-22.116717-9.903557-22.116717-22.118763l0 0c0-12.214183 9.901511-22.11467 22.116717-22.11467l398.62586 0C722.49562 470.63694 732.397131 480.538451 732.397131 492.75161L732.397131 492.75161z" p-id="2494" fill="#f54449"></path><path d="M522.023796 721.126948c0 12.216229-9.901511 22.118763-22.11467 22.118763l-188.254571 0c-12.216229 0-22.116717-9.903557-22.116717-22.118763l0 0c0-12.214183 9.901511-22.11467 22.116717-22.11467l188.254571 0C512.122285 699.012278 522.023796 708.913788 522.023796 721.126948L522.023796 721.126948z" p-id="2495" fill="#f54449"></path><path d="M836.266803 0.455371l-648.536676 0c-71.937402 0-130.463354 58.525951-130.463354 130.463354l0 762.109338c0 71.939449 58.525951 130.4654 130.463354 130.4654l355.275539 0c0.473791 0.029676 0.951675 0.050142 1.430582 0.050142 12.447497 0 22.538319-10.090822 22.538319-22.538319 0-12.007475-9.393951-21.818935-21.231557-22.496363-0.00614-0.014326-0.01228-0.027629-0.01842-0.039909l-357.995487 0c-47.109947 0-85.437881-38.327934-85.437881-85.439928l0-762.109338c0-47.109947 38.327934-85.437881 85.437881-85.437881l648.536676 0c47.111994 0 85.439928 38.327934 85.439928 85.437881l0 467.611024c-0.029676 0.471744-0.050142 0.947582-0.050142 1.425466 0 12.447497 10.090822 22.538319 22.538319 22.538319 12.44545 0 22.536272-10.090822 22.536272-22.538319l0-469.036489C966.732204 58.982346 908.206252 0.455371 836.266803 0.455371z" p-id="2496" fill="#f54449"></path><path d="M964.788945 987.043297l-83.433224-83.429131c6.541997-9.18622 11.983939-19.088754 16.244986-29.594015 7.091512-17.488303 10.688433-35.964096 10.688433-54.914704s-3.597945-37.428448-10.688433-54.914704c-7.347339-18.113543-18.134009-34.360576-32.060183-48.288796-13.928221-13.926174-30.175253-24.714891-48.288796-32.060183-17.49035-7.091512-35.964096-10.686387-54.914704-10.686387-18.949584 0-37.426401 3.595898-54.912657 10.686387-18.113543 7.345292-34.360576 18.134009-48.290843 32.060183-13.926174 13.928221-24.712845 30.175253-32.058137 48.288796-7.091512 17.486256-10.688433 35.964096-10.688433 54.914704s3.597945 37.426401 10.688433 54.914704c7.345292 18.11559 18.131963 34.360576 32.060183 48.288796 13.928221 13.926174 30.173207 24.712845 48.288796 32.060183 17.488303 7.091512 35.96512 10.686387 54.914704 10.686387 18.947538 0 37.422308-3.595898 54.912657-10.686387 10.262738-4.160763 19.954471-9.451256 28.960589-15.791661l83.523275 83.521229C929.735591 1022.098697 975.868281 1030.513344 964.788945 987.043297zM844.671217 901.43657c-21.992897 21.992897-51.230802 34.104749-82.334193 34.104749-31.103392-0.002047-60.343343-12.111852-82.332147-34.104749-21.99085-21.99085-34.104749-51.230802-34.104749-82.332147s12.111852-60.33925 34.104749-82.332147c21.99085-21.992897 51.230802-34.104749 82.332147-34.104749 31.103392 0 60.341297 12.111852 82.334193 34.104749 21.99085 21.99085 34.102702 51.230802 34.102702 82.332147S866.662067 879.44572 844.671217 901.43657z" p-id="2497" fill="#f54449"></path></svg>