<?xml version="1.0" standalone="no"?><!DOCTYPE svg PUBLIC "-//W3C//DTD SVG 1.1//EN" "http://www.w3.org/Graphics/SVG/1.1/DTD/svg11.dtd"><svg t="1530178001366" class="icon" style="" viewBox="0 0 1024 1024" version="1.1" xmlns="http://www.w3.org/2000/svg" p-id="2319" xmlns:xlink="http://www.w3.org/1999/xlink" width="200" height="200"><defs><style type="text/css"></style></defs><path d="M644.095744 958.130864c0-30.068053-23.64706-54.403077-53.310429-55.954368l0-0.283279L336.360211 901.893217c-31.066275 0-56.251136 25.184861-56.251136 56.251136 0 31.093254 25.184861 56.251136 56.251136 56.251136L590.785314 1014.395489l0-0.283279C620.448683 1012.547431 644.095744 988.198917 644.095744 958.130864z" p-id="2320" fill="#f54449"></path><path d="M901.191764 331.072335 591.311404 21.704575c-15.526393-15.877119-41.008023-16.146909-56.898631-0.607027L123.469221 423.070596c-15.904098 15.553372-16.200867 41.035002-0.647495 56.912121l137.430833 141.315804 0-2.819302 189.405804 164.274901 36.381131 0c45.999131-40.468443 115.132721-100.833871 140.250135-120.299192l7.648536-7.662025c0.040468-0.242811 0.107916-0.391195 0.148384-0.660985-5.908393-9.8743-18.278247-31.241638-29.245195-54.06584l-115.281106 116.009537c-12.720581 12.437302-32.658034 12.626154-44.596225 0.418174L204.689386 469.987011c-11.911212-12.194491-11.290696-32.131944 1.402906-44.555756L534.453241 104.23322c12.707091-12.423812 32.658034-12.558707 44.596225-0.404684L819.297124 341.054551c11.924701 12.20798 11.304185 32.131944-1.389417 44.555756l-95.060373 95.6674c5.692561 12.261938 15.904098 34.141877 26.871046 57.627063l150.825888-150.933804C916.421388 372.431084 916.731646 346.976433 901.191764 331.072335z" p-id="2321" fill="#f54449"></path><path d="M280.109075 661.969306l0 190.269131c0 0 13.233181 33.089697 64.520188 33.089697l241.974312 0c0 0 16.362741 2.792323 30.513206-10.562264 35.09963-33.170634 141.41023-135.286006 159.35124-153.227016 21.515722-21.502233 9.914769-59.569549 0-79.412575-9.928258-19.870006-76.121142-162.157052-76.121142-162.157052s-14.892387-29.784774-56.251136-11.587464-44.677161 38.053826-39.699543 72.80273c4.964129 34.748903 49.64129 107.551633 49.64129 107.551633s1.645717 18.912253-9.928258 25.184861c-11.573975 6.24563-150.556099 128.67616-150.556099 128.67616l-51.287007 0L280.109075 661.969306z" p-id="2322" fill="#f54449"></path><path d="M274.605367 435.534876l190.147726-49.371501-55.482236-55.482236 26.466362-26.452872 64.628104 64.628104 36.462067-36.462067L472.212775 267.7662l26.803599-26.803599 64.628104 64.628104 53.094598-53.081108 33.251571 33.238081-53.094598 53.094598 66.988763 66.988763-26.803599 26.803599-66.988763-66.988763-36.462067 36.462067 66.988763 66.988763-26.452872 26.452872-57.154931-57.154931-50.032485 189.486741-37.500757-37.487268c26.925004-92.052219 44.839035-149.544388 53.769072-172.516974l-0.674474-0.674474c-8.930036 4.181739-28.665147 10.91299-59.205333 20.193753l-113.311641 33.588808L274.605367 435.534876z" p-id="2323" fill="#f54449"></path></svg>