<?xml version="1.0" standalone="no"?><!DOCTYPE svg PUBLIC "-//W3C//DTD SVG 1.1//EN" "http://www.w3.org/Graphics/SVG/1.1/DTD/svg11.dtd"><svg t="1530177941289" class="icon" style="" viewBox="0 0 1028 1024" version="1.1" xmlns="http://www.w3.org/2000/svg" p-id="14505" xmlns:xlink="http://www.w3.org/1999/xlink" width="200.78125" height="200"><defs><style type="text/css"></style></defs><path d="M514.008942 0.373757c-283.681358 0-513.681905 229.112875-513.681905 511.766402 0 282.746966 230.000547 511.859841 513.681905 511.859841s513.728625-229.112875 513.728625-511.859841C1027.737567 229.486632 797.6903 0.373757 514.008942 0.373757zM514.008942 976.673054c-257.611826 0-466.354959-207.99562-466.354959-464.532895 0-256.443836 208.789853-464.392737 466.354959-464.392737 257.565106 0 466.495118 207.99562 466.495118 464.392737C980.504061 768.677434 771.574049 976.673054 514.008942 976.673054z" fill="#f54449" p-id="14506"></path><path d="M667.249202 663.044438l-40.879642 0c25.555616 61.342823 84.328862 99.606168 176.226298 114.930194l0-22.939319C727.610913 736.254038 682.526508 705.652706 667.249202 663.044438zM225.375308 755.035313l0 22.939319c91.990875-15.324026 150.717401-53.634091 176.179578-114.930194L360.721964 663.044438C345.444657 705.652706 300.220093 736.254038 225.375308 755.035313zM220.236153 659.073273l278.402044 0 0 60.174833c1.635186 27.237522-12.754448 39.94525-43.44922 38.263345L414.356054 757.511452l0 28.125194 53.634091 0c47.653983 0 71.480975-20.463181 71.480975-61.342823l0-65.220549 265.647596 0 0-47.513824L220.236153 611.559449 220.236153 659.073273zM284.195273 520.03577l0 43.028743 459.674058 0 0-43.028743L284.195273 520.03577zM222.85245 238.737111l0 44.52377 185.336618 0 0 47.747422L263.685373 331.008304l0 141.560361 429.119445 0c49.382608 1.728625 72.321927-28.125194 68.958117-69.004836L761.762935 331.008304l-143.055388 0L618.707546 283.260881l188.980746 0L807.688293 238.737111 222.85245 238.737111zM408.189068 436.828178 304.565015 436.828178 304.565015 366.795511l103.624053 0L408.189068 436.828178zM580.397482 436.828178 446.499133 436.828178 446.499133 366.795511l133.898348 0L580.397482 436.828178zM580.397482 331.008304 446.499133 331.008304 446.499133 283.260881l133.898348 0L580.397482 331.008304zM723.45287 366.795511 723.45287 403.657268c0 22.191806-11.165982 33.17091-33.217629 33.17091l-71.527694 0L618.707546 366.795511 723.45287 366.795511z" fill="#f54449" p-id="14507"></path></svg>