<?xml version="1.0" standalone="no"?><!DOCTYPE svg PUBLIC "-//W3C//DTD SVG 1.1//EN" "http://www.w3.org/Graphics/SVG/1.1/DTD/svg11.dtd"><svg t="1530081313069" class="icon" style="" viewBox="0 0 1024 1024" version="1.1" xmlns="http://www.w3.org/2000/svg" p-id="2746" xmlns:xlink="http://www.w3.org/1999/xlink" width="200" height="200"><defs><style type="text/css"></style></defs><path d="M512 1024a512 512 0 0 1-512-512 512 512 0 0 1 512-512 512 512 0 0 1 512 512 513.462857 513.462857 0 0 1-512 512zM512 68.242286a443.684571 443.684571 0 1 0 0 887.442285 443.684571 443.684571 0 0 0 443.757714-443.611428A444.708571 444.708571 0 0 0 512 68.242286z m274.212571 477.915428H237.714286a32.475429 32.475429 0 0 1-32.987429-32.036571v-4.242286c0-17.700571 14.774857-32.036571 32.987429-32.036571h548.425143c18.285714 0 32.987429 14.336 32.987428 32.036571v4.242286a32.694857 32.694857 0 0 1-32.987428 32.036571z" p-id="2747" fill="#f54449"></path></svg>