<?xml version="1.0" standalone="no"?><!DOCTYPE svg PUBLIC "-//W3C//DTD SVG 1.1//EN" "http://www.w3.org/Graphics/SVG/1.1/DTD/svg11.dtd"><svg t="1531212701118" class="icon" style="" viewBox="0 0 1024 1024" version="1.1" xmlns="http://www.w3.org/2000/svg" p-id="4115" xmlns:xlink="http://www.w3.org/1999/xlink" width="200" height="200"><defs><style type="text/css"></style></defs><path d="M487.619048 865.52381a36.571429 36.571429 0 1 0 73.142857 0 36.571429 36.571429 0 0 0-73.142857 0z" fill="#707070" p-id="4116"></path><path d="M852.21181 128.853333v766.049524c0 71.192381-58.197333 128.853333-129.852953 128.853333H300.519619C228.839619 1023.75619 170.666667 966.119619 170.666667 894.902857V128.853333C170.666667 57.636571 228.839619 0 300.519619 0h421.839238c71.68 0 129.852952 57.636571 129.852953 128.853333zM300.519619 48.761905C255.658667 48.761905 219.428571 84.675048 219.428571 128.853333v766.049524c0 44.178286 36.254476 80.091429 81.091048 80.091429h421.839238c44.836571 0 81.091048-35.913143 81.091048-80.091429V128.853333C803.449905 84.675048 767.195429 48.761905 722.358857 48.761905H300.519619z" fill="#707070" p-id="4117"></path><path d="M195.047619 707.047619h633.904762v48.761905H195.047619z" fill="#707070" p-id="4118"></path></svg>