<?xml version="1.0" standalone="no"?><!DOCTYPE svg PUBLIC "-//W3C//DTD SVG 1.1//EN" "http://www.w3.org/Graphics/SVG/1.1/DTD/svg11.dtd"><svg t="1532509957584" class="icon" style="" viewBox="0 0 1024 1024" version="1.1" xmlns="http://www.w3.org/2000/svg" p-id="7015" xmlns:xlink="http://www.w3.org/1999/xlink" width="200" height="200"><defs><style type="text/css"></style></defs><path d="M522.2 307.2h-20.4v194.6H307.2v20.4h194.6v194.6h20.4V522.2h194.6v-20.4H522.2zM0 93.1h11.6v69.8H0zM0 372.4h11.6v69.8H0zM0 232.7h11.6v69.8H0zM116.4 0h69.8v11.6h-69.8zM46.5 0H0v23.2h11.6V11.6h34.9V0zM186.2 1012.4H256v11.6h-69.8zM46.5 1012.4h69.8v11.6H46.5zM535.3 0h69.8v11.6h-69.8zM674.9 0h69.8v11.6h-69.8zM395.6 0h69.8v11.6h-69.8zM0 651.6h11.6v69.8H0zM0 930.9h11.6v69.8H0zM0 512h11.6v69.8H0zM0 791.3h11.6v69.8H0zM814.5 0h69.8v11.6h-69.8zM1012.4 535.3h11.6v69.8h-11.6zM1012.4 674.9h11.6v69.8h-11.6zM1012.4 395.6h11.6v69.8h-11.6zM1012.4 814.5h11.6v69.8h-11.6zM954.2 0v11.6h58.2v34.9h11.6V0zM1012.4 256h11.6v69.8h-11.6zM1012.4 116.4h11.6v69.8h-11.6zM744.7 1012.4h69.8v11.6h-69.8zM465.5 1012.4h69.8v11.6h-69.8zM325.8 1012.4h69.8v11.6h-69.8zM1012.4 954.2h11.6v69.8h-11.6zM605.1 1012.4h69.8v11.6h-69.8zM256 0h69.8v11.6H256zM884.4 1012.4h69.8v11.6h-69.8z" p-id="7016" fill="#8a8a8a"></path></svg>