<?xml version="1.0" standalone="no"?><!DOCTYPE svg PUBLIC "-//W3C//DTD SVG 1.1//EN" "http://www.w3.org/Graphics/SVG/1.1/DTD/svg11.dtd"><svg t="1531217871914" class="icon" style="" viewBox="0 0 1024 1024" version="1.1" xmlns="http://www.w3.org/2000/svg" p-id="5715" xmlns:xlink="http://www.w3.org/1999/xlink" width="200" height="200"><defs><style type="text/css"></style></defs><path d="M959.83104 512c0 247.34208-200.49408 447.82592-447.8208 447.82592-247.3472 0-447.84128-200.48384-447.84128-447.82592 0-247.33184 200.49408-447.82592 447.84128-447.82592 247.32672 0 447.8208 200.49408 447.8208 447.82592z" fill="#6CB835" p-id="5716"></path><path d="M631.17312 429.94176c6.53824 0 13.02016 0.47616 19.45088 1.18784-17.46944-81.41312-104.52992-141.91104-203.89888-141.91104-111.0784 0-202.0864 75.71456-202.0864 171.87328 0 55.49568 30.27968 101.07392 80.87552 136.42752l-20.21376 60.78464 70.64576-35.42016c25.27744 4.99712 45.55776 10.14272 70.77888 10.14272a245.0944 245.0944 0 0 0 18.8672-0.7936c-3.9424-13.52704-6.23616-27.68384-6.23616-42.35264 0-88.28928 75.81184-159.93856 171.81696-159.93856z m-108.66176-54.79424c15.21664 0 25.2928 10.0096 25.2928 25.22624 0 15.13984-10.08128 25.29792-25.2928 25.29792-15.14496 0-30.35136-10.15808-30.35136-25.29792 0-15.21664 15.2064-25.22624 30.35136-25.22624z m-141.43488 50.52416c-15.13472 0-30.42304-10.15808-30.42304-25.29792 0-15.21664 15.28832-25.22624 30.42304-25.22624 15.1552 0 25.23648 10.0096 25.23648 25.22624-0.00512 15.13472-10.08128 25.29792-25.23648 25.29792z" fill="#FFFFFF" p-id="5717"></path><path d="M815.616 587.44832c0-80.79872-80.86016-146.65216-171.648-146.65216-96.15872 0-171.8784 65.84832-171.8784 146.65216 0 80.93184 75.71968 146.6624 171.8784 146.6624 20.11648 0 40.41728-5.07904 60.63616-10.1376l55.41888 30.3616-15.19104-50.5088c40.54528-30.44864 70.784-70.79424 70.784-116.3776z m-227.3792-25.27744c-10.06592 0-20.224-10.0096-20.224-20.23936 0-10.07616 10.15808-20.19328 20.224-20.19328 15.27808 0 25.28256 10.12224 25.28256 20.19328-0.00512 10.22976-10.00448 20.23936-25.28256 20.23936z m111.15008 0c-9.99936 0-20.06528-10.0096-20.06528-20.23936 0-10.07616 10.07616-20.19328 20.06528-20.19328 15.15008 0 25.28768 10.12224 25.28768 20.19328 0 10.22976-10.1376 20.23936-25.28768 20.23936z" fill="#FFFFFF" p-id="5718"></path></svg>