<?xml version="1.0" standalone="no"?><!DOCTYPE svg PUBLIC "-//W3C//DTD SVG 1.1//EN" "http://www.w3.org/Graphics/SVG/1.1/DTD/svg11.dtd"><svg t="1531275443267" class="icon" style="" viewBox="0 0 1024 1024" version="1.1" xmlns="http://www.w3.org/2000/svg" p-id="1935" xmlns:xlink="http://www.w3.org/1999/xlink" width="200" height="200"><defs><style type="text/css"></style></defs><path d="M512.064 1.344c111.424 85.952 231.424 145.728 437.312 145.728l0 377.6c0 180.096-231.424 497.984-437.312 497.984-205.888 0-437.44-317.952-437.44-497.984l0-377.6C280.384 147.072 400.512 87.232 512.064 1.344L512.064 1.344zM512.064 86.208C419.008 157.888 318.912 207.744 147.328 207.744l0 314.816c0 150.144 193.088 415.232 364.672 415.232 171.648 0 364.608-265.088 364.608-415.232L876.608 207.744C705.024 207.744 604.992 157.888 512.064 86.208L512.064 86.208z" p-id="1936" fill="#707070"></path><path d="M769.024 361.344l-28.224-28.16c-7.04-7.04-20.16-5.376-29.312 3.776L450.176 598.464l-138.432-131.84C302.272 457.6 289.024 456.128 282.112 463.36L254.656 492.288c-6.848 7.232-4.736 20.416 4.736 29.44l173.632 165.376c3.52 3.328 7.552 5.632 11.584 6.848 7.296 3.008 17.216 0.448 24.576-6.912l296.192-296.384C774.4 381.504 776.064 368.384 769.024 361.344z" p-id="1937" fill="#707070"></path></svg>